<svg xmlns="http://www.w3.org/2000/svg" width="720" height="410" viewBox="0 0 720 410" font-family="ui-monospace, 'SF Mono', 'DejaVu Sans Mono', Consolas, monospace" font-size="14">
<style>
  .row { opacity:0; animation: appear .5s ease forwards; }
  @keyframes appear {
    from { opacity:0; transform: translateX(10px); }
    to   { opacity:1; transform: translateX(0);    }
  }
  .k { fill:#39d353; font-weight:600; }
  .v { fill:#c9d1d9; }
  .logo { fill:#58a6ff; white-space:pre; }
</style>
<rect x="1" y="1" width="718" height="408" rx="10" fill="#0d1117" stroke="#30363d" stroke-width="1.5"/>
<rect x="1" y="1" width="718" height="34" rx="10" fill="#161b22"/>
<rect x="1" y="20" width="718" height="15" fill="#161b22"/>
<circle cx="22" cy="18" r="6" fill="#ff5f56"/>
<circle cx="42" cy="18" r="6" fill="#ffbd2e"/>
<circle cx="62" cy="18" r="6" fill="#27c93f"/>
<text x="360.0" y="23" text-anchor="middle" fill="#8b949e" font-size="13">Chase-perfection@profile: ~</text>
<text class="row" font-size="11" xml:space="preserve" style="animation-delay:0.00s"><tspan x="66.2" y="82.0" fill="#e3e3e0">.</tspan><tspan x="72.8" y="82.0" fill="#c4c6c3">-</tspan><tspan x="79.4" y="82.0" fill="#b0b5bb">-</tspan><tspan x="86.0" y="82.0" fill="#afb7bf">-</tspan><tspan x="92.6" y="82.0" fill="#bcbdc1">-</tspan><tspan x="99.2" y="82.0" fill="#e7dbcc">.</tspan></text>
<text class="row" font-size="11" xml:space="preserve" style="animation-delay:0.05s"><tspan x="53.0" y="93.0" fill="#bfc8d6">:</tspan><tspan x="59.6" y="93.0" fill="#8f959e">+</tspan><tspan x="66.2" y="93.0" fill="#7b8289">*</tspan><tspan x="72.8" y="93.0" fill="#949fae">=</tspan><tspan x="79.4" y="93.0" fill="#93a2b1">=</tspan><tspan x="86.0" y="93.0" fill="#8d9592">+</tspan><tspan x="92.6" y="93.0" fill="#aca79a">=</tspan><tspan x="99.2" y="93.0" fill="#c8beac">-</tspan><tspan x="105.8" y="93.0" fill="#ded4ca">:</tspan><tspan x="119.0" y="93.0" fill="#d7f7fd">.</tspan><tspan x="125.6" y="93.0" fill="#8fccf8">-</tspan><tspan x="132.2" y="93.0" fill="#8ca3ef">=</tspan><tspan x="138.8" y="93.0" fill="#bcbcdb">-</tspan></text>
<text class="row" font-size="11" xml:space="preserve" style="animation-delay:0.10s"><tspan x="39.8" y="104.0" fill="#cfe1ed">.</tspan><tspan x="46.4" y="104.0" fill="#8faace">=</tspan><tspan x="53.0" y="104.0" fill="#75829b">*</tspan><tspan x="59.6" y="104.0" fill="#737884">*</tspan><tspan x="66.2" y="104.0" fill="#72737e">#</tspan><tspan x="72.8" y="104.0" fill="#88899f">+</tspan><tspan x="79.4" y="104.0" fill="#7b81ab">*</tspan><tspan x="86.0" y="104.0" fill="#6471a7">#</tspan><tspan x="92.6" y="104.0" fill="#6273b3">*</tspan><tspan x="99.2" y="104.0" fill="#6475b9">*</tspan><tspan x="105.8" y="104.0" fill="#6b77bf">*</tspan><tspan x="112.4" y="104.0" fill="#7d7dc5">*</tspan><tspan x="119.0" y="104.0" fill="#a291eb">=</tspan><tspan x="125.6" y="104.0" fill="#c6b7fc">-</tspan><tspan x="132.2" y="104.0" fill="#b9d3fb">:</tspan><tspan x="138.8" y="104.0" fill="#7bb2e4">=</tspan><tspan x="145.4" y="104.0" fill="#768ec0">+</tspan><tspan x="152.0" y="104.0" fill="#c3bfdc">-</tspan></text>
<text class="row" font-size="11" xml:space="preserve" style="animation-delay:0.15s"><tspan x="33.2" y="115.0" fill="#b7cfe3">:</tspan><tspan x="39.8" y="115.0" fill="#708fbc">+</tspan><tspan x="46.4" y="115.0" fill="#6f7993">*</tspan><tspan x="53.0" y="115.0" fill="#727483">*</tspan><tspan x="59.6" y="115.0" fill="#696c97">#</tspan><tspan x="66.2" y="115.0" fill="#667fcb">*</tspan><tspan x="72.8" y="115.0" fill="#6597eb">+</tspan><tspan x="79.4" y="115.0" fill="#6ca7f7">=</tspan><tspan x="86.0" y="115.0" fill="#77b3fb">=</tspan><tspan x="92.6" y="115.0" fill="#82bbff">-</tspan><tspan x="99.2" y="115.0" fill="#7fb2ff">=</tspan><tspan x="105.8" y="115.0" fill="#75a3fe">=</tspan><tspan x="112.4" y="115.0" fill="#698ffb">+</tspan><tspan x="119.0" y="115.0" fill="#6380f8">*</tspan><tspan x="125.6" y="115.0" fill="#6877f8">*</tspan><tspan x="132.2" y="115.0" fill="#958bf8">+</tspan><tspan x="138.8" y="115.0" fill="#d4dcfb">.</tspan><tspan x="145.4" y="115.0" fill="#a3e3f5">:</tspan><tspan x="152.0" y="115.0" fill="#5e91ef">+</tspan><tspan x="158.6" y="115.0" fill="#a1c9ed">-</tspan></text>
<text class="row" font-size="11" xml:space="preserve" style="animation-delay:0.20s"><tspan x="26.6" y="126.0" fill="#c5cdcd">:</tspan><tspan x="33.2" y="126.0" fill="#738aab">*</tspan><tspan x="39.8" y="126.0" fill="#6d7794">*</tspan><tspan x="46.4" y="126.0" fill="#73798f">*</tspan><tspan x="53.0" y="126.0" fill="#6a77c0">*</tspan><tspan x="59.6" y="126.0" fill="#69a4f7">+</tspan><tspan x="66.2" y="126.0" fill="#6dc4fa">=</tspan><tspan x="72.8" y="126.0" fill="#82cee6">-</tspan><tspan x="79.4" y="126.0" fill="#95d7e3">-</tspan><tspan x="86.0" y="126.0" fill="#a3e1e9">:</tspan><tspan x="92.6" y="126.0" fill="#a8e1eb">:</tspan><tspan x="99.2" y="126.0" fill="#a3d7f6">:</tspan><tspan x="105.8" y="126.0" fill="#9fcbfb">-</tspan><tspan x="112.4" y="126.0" fill="#97bbfb">-</tspan><tspan x="119.0" y="126.0" fill="#7087f0">+</tspan><tspan x="125.6" y="126.0" fill="#718bf7">+</tspan><tspan x="132.2" y="126.0" fill="#6584f9">*</tspan><tspan x="138.8" y="126.0" fill="#759efa">+</tspan><tspan x="145.4" y="126.0" fill="#d5ebef">.</tspan><tspan x="152.0" y="126.0" fill="#bdfec2">.</tspan><tspan x="158.6" y="126.0" fill="#67f0e8">:</tspan><tspan x="165.2" y="126.0" fill="#c7f1e6">.</tspan></text>
<text class="row" font-size="11" xml:space="preserve" style="animation-delay:0.25s"><tspan x="26.6" y="137.0" fill="#8b8983">+</tspan><tspan x="33.2" y="137.0" fill="#636366">#</tspan><tspan x="39.8" y="137.0" fill="#696a69">#</tspan><tspan x="46.4" y="137.0" fill="#696fb4">*</tspan><tspan x="53.0" y="137.0" fill="#69a8fd">=</tspan><tspan x="59.6" y="137.0" fill="#73deff">-</tspan><tspan x="66.2" y="137.0" fill="#73d2df">-</tspan><tspan x="72.8" y="137.0" fill="#7bcfba">-</tspan><tspan x="79.4" y="137.0" fill="#87d3d3">-</tspan><tspan x="86.0" y="137.0" fill="#90d3e7">-</tspan><tspan x="92.6" y="137.0" fill="#8ec7f0">-</tspan><tspan x="99.2" y="137.0" fill="#8bbaf8">-</tspan><tspan x="105.8" y="137.0" fill="#a1bdfb">-</tspan><tspan x="112.4" y="137.0" fill="#ced9fb">:</tspan><tspan x="119.0" y="137.0" fill="#7c87d7">+</tspan><tspan x="125.6" y="137.0" fill="#6a72cf">*</tspan><tspan x="132.2" y="137.0" fill="#6870e4">*</tspan><tspan x="138.8" y="137.0" fill="#6686f8">+</tspan><tspan x="145.4" y="137.0" fill="#79c9ff">-</tspan><tspan x="152.0" y="137.0" fill="#ecfbab">.</tspan><tspan x="158.6" y="137.0" fill="#e6fc78">.</tspan><tspan x="165.2" y="137.0" fill="#e7f387">.</tspan></text>
<text class="row" font-size="11" xml:space="preserve" style="animation-delay:0.30s"><tspan x="20.0" y="148.0" fill="#c3c0bb">-</tspan><tspan x="26.6" y="148.0" fill="#686762">#</tspan><tspan x="33.2" y="148.0" fill="#636360">#</tspan><tspan x="39.8" y="148.0" fill="#666477">#</tspan><tspan x="46.4" y="148.0" fill="#6577e6">*</tspan><tspan x="53.0" y="148.0" fill="#6bccfb">-</tspan><tspan x="59.6" y="148.0" fill="#7bedfb">:</tspan><tspan x="66.2" y="148.0" fill="#83e7f2">:</tspan><tspan x="72.8" y="148.0" fill="#7ee3e9">-</tspan><tspan x="79.4" y="148.0" fill="#78dff0">-</tspan><tspan x="86.0" y="148.0" fill="#74d6f8">-</tspan><tspan x="92.6" y="148.0" fill="#71b4fb">=</tspan><tspan x="99.2" y="148.0" fill="#6b89fd">+</tspan><tspan x="105.8" y="148.0" fill="#6d77ee">*</tspan><tspan x="112.4" y="148.0" fill="#7679cb">*</tspan><tspan x="119.0" y="148.0" fill="#696ba7">#</tspan><tspan x="125.6" y="148.0" fill="#66689e">#</tspan><tspan x="132.2" y="148.0" fill="#6567bb">#</tspan><tspan x="138.8" y="148.0" fill="#656ceb">*</tspan><tspan x="145.4" y="148.0" fill="#65b3ff">=</tspan><tspan x="152.0" y="148.0" fill="#c4f2c0">.</tspan><tspan x="158.6" y="148.0" fill="#ffdd5f">.</tspan><tspan x="165.2" y="148.0" fill="#f3dc5f">:</tspan><tspan x="171.8" y="148.0" fill="#ede5bb">.</tspan></text>
<text class="row" font-size="11" xml:space="preserve" style="animation-delay:0.35s"><tspan x="20.0" y="159.0" fill="#c5c2bb">-</tspan><tspan x="26.6" y="159.0" fill="#666463">#</tspan><tspan x="33.2" y="159.0" fill="#676662">#</tspan><tspan x="39.8" y="159.0" fill="#696789">#</tspan><tspan x="46.4" y="159.0" fill="#677bf0">*</tspan><tspan x="53.0" y="159.0" fill="#6cc7fa">-</tspan><tspan x="59.6" y="159.0" fill="#75ecf8">:</tspan><tspan x="66.2" y="159.0" fill="#83f3f9">:</tspan><tspan x="72.8" y="159.0" fill="#80edfa">:</tspan><tspan x="79.4" y="159.0" fill="#77d6fa">-</tspan><tspan x="86.0" y="159.0" fill="#6caafb">=</tspan><tspan x="92.6" y="159.0" fill="#677fef">*</tspan><tspan x="99.2" y="159.0" fill="#676bbf">#</tspan><tspan x="105.8" y="159.0" fill="#6a6a95">#</tspan><tspan x="112.4" y="159.0" fill="#6f6d7f">#</tspan><tspan x="119.0" y="159.0" fill="#676770">#</tspan><tspan x="125.6" y="159.0" fill="#65666e">#</tspan><tspan x="132.2" y="159.0" fill="#67678b">#</tspan><tspan x="138.8" y="159.0" fill="#6367df">*</tspan><tspan x="145.4" y="159.0" fill="#64b6ff">=</tspan><tspan x="152.0" y="159.0" fill="#c0e1bf">:</tspan><tspan x="158.6" y="159.0" fill="#dc8f7e">=</tspan><tspan x="165.2" y="159.0" fill="#d19475">=</tspan><tspan x="171.8" y="159.0" fill="#e9d5c2">:</tspan></text>
<text class="row" font-size="11" xml:space="preserve" style="animation-delay:0.40s"><tspan x="26.6" y="170.0" fill="#a2bdb0">-</tspan><tspan x="33.2" y="170.0" fill="#6f8c8d">*</tspan><tspan x="39.8" y="170.0" fill="#6c7383">#</tspan><tspan x="46.4" y="170.0" fill="#646bd7">*</tspan><tspan x="53.0" y="170.0" fill="#679cfb">+</tspan><tspan x="59.6" y="170.0" fill="#6cc2f8">=</tspan><tspan x="66.2" y="170.0" fill="#74bff8">=</tspan><tspan x="72.8" y="170.0" fill="#7ba3f8">=</tspan><tspan x="79.4" y="170.0" fill="#737afb">*</tspan><tspan x="86.0" y="170.0" fill="#6763e3">#</tspan><tspan x="92.6" y="170.0" fill="#65638a">#</tspan><tspan x="99.2" y="170.0" fill="#6a6764">#</tspan><tspan x="105.8" y="170.0" fill="#736f69">#</tspan><tspan x="112.4" y="170.0" fill="#76726d">#</tspan><tspan x="119.0" y="170.0" fill="#6b6a68">#</tspan><tspan x="125.6" y="170.0" fill="#66665f">#</tspan><tspan x="132.2" y="170.0" fill="#68648c">#</tspan><tspan x="138.8" y="170.0" fill="#637ff3">*</tspan><tspan x="145.4" y="170.0" fill="#72d2e9">-</tspan><tspan x="152.0" y="170.0" fill="#acb897">=</tspan><tspan x="158.6" y="170.0" fill="#727383">*</tspan><tspan x="165.2" y="170.0" fill="#778181">*</tspan></text>
<text class="row" font-size="11" xml:space="preserve" style="animation-delay:0.45s"><tspan x="33.2" y="181.0" fill="#bef0dc">.</tspan><tspan x="39.8" y="181.0" fill="#aadbcf">:</tspan><tspan x="46.4" y="181.0" fill="#8693c6">+</tspan><tspan x="53.0" y="181.0" fill="#6577ed">*</tspan><tspan x="59.6" y="181.0" fill="#638ef9">+</tspan><tspan x="66.2" y="181.0" fill="#6a87f8">+</tspan><tspan x="72.8" y="181.0" fill="#6e69f9">*</tspan><tspan x="79.4" y="181.0" fill="#6b62f0">*</tspan><tspan x="86.0" y="181.0" fill="#6a6697">#</tspan><tspan x="92.6" y="181.0" fill="#6c6960">#</tspan><tspan x="99.2" y="181.0" fill="#706c65">#</tspan><tspan x="105.8" y="181.0" fill="#716c66">#</tspan><tspan x="112.4" y="181.0" fill="#706b65">#</tspan><tspan x="119.0" y="181.0" fill="#6e6867">#</tspan><tspan x="125.6" y="181.0" fill="#6b678e">#</tspan><tspan x="132.2" y="181.0" fill="#647ee3">*</tspan><tspan x="138.8" y="181.0" fill="#69bbeb">=</tspan><tspan x="145.4" y="181.0" fill="#84c9af">-</tspan><tspan x="152.0" y="181.0" fill="#707c7f">*</tspan><tspan x="158.6" y="181.0" fill="#5f6c82">#</tspan><tspan x="165.2" y="181.0" fill="#aeb5c2">-</tspan></text>
<text class="row" font-size="11" xml:space="preserve" style="animation-delay:0.50s"><tspan x="33.2" y="192.0" fill="#dcdfc5">.</tspan><tspan x="39.8" y="192.0" fill="#c4d2b6">:</tspan><tspan x="46.4" y="192.0" fill="#cbefe2">.</tspan><tspan x="53.0" y="192.0" fill="#b9ceeb">:</tspan><tspan x="59.6" y="192.0" fill="#859bf3">=</tspan><tspan x="66.2" y="192.0" fill="#6b8af7">+</tspan><tspan x="72.8" y="192.0" fill="#697ffb">*</tspan><tspan x="79.4" y="192.0" fill="#6e73f3">*</tspan><tspan x="86.0" y="192.0" fill="#6e6dc1">*</tspan><tspan x="92.6" y="192.0" fill="#6b6997">#</tspan><tspan x="99.2" y="192.0" fill="#6c6a8c">#</tspan><tspan x="105.8" y="192.0" fill="#6e6c93">#</tspan><tspan x="112.4" y="192.0" fill="#6f73ab">*</tspan><tspan x="119.0" y="192.0" fill="#6f83d2">*</tspan><tspan x="125.6" y="192.0" fill="#72a1ef">+</tspan><tspan x="132.2" y="192.0" fill="#8bcce5">-</tspan><tspan x="138.8" y="192.0" fill="#a2ddcf">:</tspan><tspan x="145.4" y="192.0" fill="#7f9da5">+</tspan><tspan x="152.0" y="192.0" fill="#6a7f8e">*</tspan><tspan x="158.6" y="192.0" fill="#a7bac9">-</tspan></text>
<text class="row" font-size="11" xml:space="preserve" style="animation-delay:0.55s"><tspan x="39.8" y="203.0" fill="#d6cbc1">:</tspan><tspan x="46.4" y="203.0" fill="#a4a3af">=</tspan><tspan x="53.0" y="203.0" fill="#a0abbb">=</tspan><tspan x="59.6" y="203.0" fill="#b3c0ce">-</tspan><tspan x="66.2" y="203.0" fill="#acc7e1">-</tspan><tspan x="72.8" y="203.0" fill="#97bbe6">-</tspan><tspan x="79.4" y="203.0" fill="#8cb1ed">=</tspan><tspan x="86.0" y="203.0" fill="#8aacf5">=</tspan><tspan x="92.6" y="203.0" fill="#88aaf6">=</tspan><tspan x="99.2" y="203.0" fill="#85aaf3">=</tspan><tspan x="105.8" y="203.0" fill="#88b2ef">=</tspan><tspan x="112.4" y="203.0" fill="#8fbfeb">-</tspan><tspan x="119.0" y="203.0" fill="#a7d7e9">:</tspan><tspan x="125.6" y="203.0" fill="#caece8">.</tspan><tspan x="138.8" y="203.0" fill="#c2e7e4">.</tspan><tspan x="145.4" y="203.0" fill="#aad2ce">-</tspan><tspan x="152.0" y="203.0" fill="#cce0e2">.</tspan></text>
<text class="row" font-size="11" xml:space="preserve" style="animation-delay:0.60s"><tspan x="53.0" y="214.0" fill="#cac2d5">:</tspan><tspan x="59.6" y="214.0" fill="#a29ab3">=</tspan><tspan x="66.2" y="214.0" fill="#979197">+</tspan><tspan x="72.8" y="214.0" fill="#93928d">+</tspan><tspan x="79.4" y="214.0" fill="#8e928b">+</tspan><tspan x="86.0" y="214.0" fill="#8c958e">+</tspan><tspan x="92.6" y="214.0" fill="#8f9a96">+</tspan><tspan x="99.2" y="214.0" fill="#8e9a9d">+</tspan><tspan x="105.8" y="214.0" fill="#93a4ad">=</tspan><tspan x="112.4" y="214.0" fill="#accfcf">-</tspan><tspan x="119.0" y="214.0" fill="#c7ebe0">.</tspan><tspan x="125.6" y="214.0" fill="#cbe7dc">.</tspan><tspan x="132.2" y="214.0" fill="#cbe8e3">.</tspan><tspan x="138.8" y="214.0" fill="#daeeeb">.</tspan></text>
<text class="row" font-size="11" xml:space="preserve" style="animation-delay:0.65s"><tspan x="66.2" y="225.0" fill="#ebe9ea">.</tspan><tspan x="72.8" y="225.0" fill="#d8d5d7">:</tspan><tspan x="79.4" y="225.0" fill="#c2bdbf">-</tspan><tspan x="86.0" y="225.0" fill="#b2acac">=</tspan><tspan x="92.6" y="225.0" fill="#a7a3a3">=</tspan><tspan x="99.2" y="225.0" fill="#a6a3aa">=</tspan><tspan x="105.8" y="225.0" fill="#bfc7cc">-</tspan><tspan x="112.4" y="225.0" fill="#dde9e9">.</tspan><tspan x="119.0" y="225.0" fill="#eaf0ef">.</tspan></text>
<g class="row" style="animation-delay:0.00s"><text x="200" y="82"><tspan class="k">Chase-perfection</tspan><tspan class="v">@</tspan><tspan fill="#58a6ff">profile</tspan></text></g>
<g class="row" style="animation-delay:0.12s"><text x="200" y="104"><tspan class="v">——————————————————————</tspan></text></g>
<g class="row" style="animation-delay:0.24s"><text x="200" y="126"><tspan class="k">role</tspan><tspan class="v">: Consultant en cybersécurité et automatisation des</tspan></text></g>
<g class="row" style="animation-delay:0.36s"><text x="250" y="148"><tspan class="v">processus</tspan></text></g>
<g class="row" style="animation-delay:0.48s"><text x="200" y="170"><tspan class="k">Compétence</tspan><tspan class="v">: Concevoir et déployer des solutions</tspan></text></g>
<g class="row" style="animation-delay:0.60s"><text x="301" y="192"><tspan class="v">d&#x27;automatisation pour les équipes IT et</tspan></text></g>
<g class="row" style="animation-delay:0.72s"><text x="301" y="214"><tspan class="v">cybersécurité, en intégrant des technologies</tspan></text></g>
<g class="row" style="animation-delay:0.84s"><text x="301" y="236"><tspan class="v">d&#x27;intelligence artificielle afin d&#x27;optimiser</tspan></text></g>
<g class="row" style="animation-delay:0.96s"><text x="301" y="258"><tspan class="v">les processus, renforcer la sécurité du système</tspan></text></g>
<g class="row" style="animation-delay:1.08s"><text x="301" y="280"><tspan class="v">d&#x27;information et réduire les tâches</tspan></text></g>
<g class="row" style="animation-delay:1.20s"><text x="301" y="302"><tspan class="v">répétitives.</tspan></text></g>
<g class="row" style="animation-delay:1.32s"><text x="200" y="324"><tspan class="k">editor</tspan><tspan class="v">: VS Code / Antigravity / Manus / Claude</tspan></text></g>
<g class="row" style="animation-delay:1.44s"><text x="200" y="346"><tspan class="k">os</tspan><tspan class="v">: Linux · Windows</tspan></text></g>
<g class="row" style="animation-delay:1.56s"><text x="200" y="368"><tspan class="k">focus</tspan><tspan class="v">: AI builder · Open source</tspan></text></g>
<g class="row" style="animation-delay:1.68s"><text x="200" y="390"><tspan class="k">uptime</tspan><tspan class="v">: coding since 2020</tspan></text></g>
</svg>