<svg xmlns="http://www.w3.org/2000/svg" width="720" height="282" viewBox="0 0 720 282" font-family="ui-monospace, 'SF Mono', 'DejaVu Sans Mono', Consolas, monospace" font-size="14">
<style>
      .fill { transform: scaleX(0); transform-box: fill-box; transform-origin: left;
              animation: grow 1s cubic-bezier(.2,.8,.2,1) forwards; }
      @keyframes grow { to { transform: scaleX(1); } }
      .row { opacity:0; animation: fade .4s ease forwards; }
      @keyframes fade { to { opacity:1; } }
    </style>
<rect x="1" y="1" width="718" height="280" rx="10" fill="#0d1117" stroke="#30363d" stroke-width="1.5"/>
<rect x="1" y="1" width="718" height="34" rx="10" fill="#161b22"/>
<rect x="1" y="20" width="718" height="15" fill="#161b22"/>
<circle cx="22" cy="18" r="6" fill="#ff5f56"/>
<circle cx="42" cy="18" r="6" fill="#ffbd2e"/>
<circle cx="62" cy="18" r="6" fill="#27c93f"/>
<text x="360.0" y="23" text-anchor="middle" fill="#8b949e" font-size="13">Chase-perfection — top langages</text>
<g class="row" style="animation-delay:0.15s">
<text x="22" y="68" fill="#c9d1d9">Python</text>
<rect x="152" y="56" width="492.0" height="12" rx="6" fill="#161b22" stroke="#30363d" stroke-width="0.5"/>
<rect class="fill" x="152" y="56" width="228.4" height="12" rx="6" fill="#3572A5" style="animation-delay:0.15s"/>
<text x="698" y="68" text-anchor="end" fill="#8b949e">46.4%</text>
</g>
<g class="row" style="animation-delay:0.27s">
<text x="22" y="102" fill="#c9d1d9">JavaScript</text>
<rect x="152" y="90" width="492.0" height="12" rx="6" fill="#161b22" stroke="#30363d" stroke-width="0.5"/>
<rect class="fill" x="152" y="90" width="123.0" height="12" rx="6" fill="#f1e05a" style="animation-delay:0.27s"/>
<text x="698" y="102" text-anchor="end" fill="#8b949e">25.0%</text>
</g>
<g class="row" style="animation-delay:0.39s">
<text x="22" y="136" fill="#c9d1d9">Shell</text>
<rect x="152" y="124" width="492.0" height="12" rx="6" fill="#161b22" stroke="#30363d" stroke-width="0.5"/>
<rect class="fill" x="152" y="124" width="65.9" height="12" rx="6" fill="#89e051" style="animation-delay:0.39s"/>
<text x="698" y="136" text-anchor="end" fill="#8b949e">13.4%</text>
</g>
<g class="row" style="animation-delay:0.51s">
<text x="22" y="170" fill="#c9d1d9">HTML</text>
<rect x="152" y="158" width="492.0" height="12" rx="6" fill="#161b22" stroke="#30363d" stroke-width="0.5"/>
<rect class="fill" x="152" y="158" width="39.5" height="12" rx="6" fill="#e34c26" style="animation-delay:0.51s"/>
<text x="698" y="170" text-anchor="end" fill="#8b949e">8.0%</text>
</g>
<g class="row" style="animation-delay:0.63s">
<text x="22" y="204" fill="#c9d1d9">Dockerfile</text>
<rect x="152" y="192" width="492.0" height="12" rx="6" fill="#161b22" stroke="#30363d" stroke-width="0.5"/>
<rect class="fill" x="152" y="192" width="22.0" height="12" rx="6" fill="#384d54" style="animation-delay:0.63s"/>
<text x="698" y="204" text-anchor="end" fill="#8b949e">4.5%</text>
</g>
<g class="row" style="animation-delay:0.75s">
<text x="22" y="238" fill="#c9d1d9">CSS</text>
<rect x="152" y="226" width="492.0" height="12" rx="6" fill="#161b22" stroke="#30363d" stroke-width="0.5"/>
<rect class="fill" x="152" y="226" width="13.2" height="12" rx="6" fill="#563d7c" style="animation-delay:0.75s"/>
<text x="698" y="238" text-anchor="end" fill="#8b949e">2.7%</text>
</g>
</svg>