<svg xmlns="http://www.w3.org/2000/svg" width="720" height="254" viewBox="0 0 720 254" font-family="ui-monospace, 'SF Mono', 'DejaVu Sans Mono', Consolas, monospace">
<style>
      .tile { opacity:0; animation: pop .5s ease forwards; }
      @keyframes pop { from { opacity:0; transform: translateY(8px); }
                       to   { opacity:1; transform: translateY(0);   } }
    </style>
<rect x="1" y="1" width="718" height="252" rx="10" fill="#0d1117" stroke="#30363d" stroke-width="1.5"/>
<rect x="1" y="1" width="718" height="34" rx="10" fill="#161b22"/>
<rect x="1" y="20" width="718" height="15" fill="#161b22"/>
<circle cx="22" cy="18" r="6" fill="#ff5f56"/>
<circle cx="42" cy="18" r="6" fill="#ffbd2e"/>
<circle cx="62" cy="18" r="6" fill="#27c93f"/>
<text x="360.0" y="23" text-anchor="middle" fill="#8b949e" font-size="13">Chase-perfection@stats: ~</text>
<g class="tile" style="animation-delay:0.15s">
<rect x="22.0" y="52" width="214.7" height="82" rx="8" fill="#161b22" stroke="#30363d" stroke-width="1"/>
<text x="129.3" y="94" text-anchor="middle" fill="#58a6ff" font-size="30" font-weight="700">24</text>
<text x="129.3" y="116" text-anchor="middle" fill="#8b949e" font-size="13">dépôts</text>
</g>
<g class="tile" style="animation-delay:0.25s">
<rect x="252.7" y="52" width="214.7" height="82" rx="8" fill="#161b22" stroke="#30363d" stroke-width="1"/>
<text x="360.0" y="94" text-anchor="middle" fill="#ffbd2e" font-size="30" font-weight="700">87</text>
<text x="360.0" y="116" text-anchor="middle" fill="#8b949e" font-size="13">étoiles</text>
</g>
<g class="tile" style="animation-delay:0.35s">
<rect x="483.3" y="52" width="214.7" height="82" rx="8" fill="#161b22" stroke="#30363d" stroke-width="1"/>
<text x="590.7" y="94" text-anchor="middle" fill="#39d353" font-size="30" font-weight="700">41</text>
<text x="590.7" y="116" text-anchor="middle" fill="#8b949e" font-size="13">abonnés</text>
</g>
<g class="tile" style="animation-delay:0.45s">
<rect x="22.0" y="150" width="214.7" height="82" rx="8" fill="#161b22" stroke="#30363d" stroke-width="1"/>
<text x="129.3" y="192" text-anchor="middle" fill="#39d353" font-size="30" font-weight="700">1.3k</text>
<text x="129.3" y="214" text-anchor="middle" fill="#8b949e" font-size="13">commits (an)</text>
</g>
<g class="tile" style="animation-delay:0.55s">
<rect x="252.7" y="150" width="214.7" height="82" rx="8" fill="#161b22" stroke="#30363d" stroke-width="1"/>
<text x="360.0" y="192" text-anchor="middle" fill="#58a6ff" font-size="30" font-weight="700">63</text>
<text x="360.0" y="214" text-anchor="middle" fill="#8b949e" font-size="13">pull requests</text>
</g>
<g class="tile" style="animation-delay:0.65s">
<rect x="483.3" y="150" width="214.7" height="82" rx="8" fill="#161b22" stroke="#30363d" stroke-width="1"/>
<text x="590.7" y="192" text-anchor="middle" fill="#ffbd2e" font-size="30" font-weight="700">19</text>
<text x="590.7" y="214" text-anchor="middle" fill="#8b949e" font-size="13">issues</text>
</g>
</svg>